<svg id="Layer_1" data-name="Layer 1" xmlns="http://www.w3.org/2000/svg" viewBox="0 0 1000 400"><defs><style>.cls-1{fill:#1985ad;}.cls-2{fill:#7f7f7f;}</style></defs><path class="cls-1" d="M237.77,172.59c-5.55-17.76-1.79-39.1,11.88-57.53,1.52-2,2.38-3.63,4.36-5-17.24-20.41-41.82-28.79-61.57-21.85-.66.46-2,1.38-2.18,2.51l-1.38,7.86a3.66,3.66,0,0,1-3.3,2.31l-7.86-1.39c-1.13-.19-2.45.73-3.11,1.19-13.27,16.19-13.8,42.15-.52,65.33,1.79-.27,3.77-1.65,6.21-2.38C201.64,157.54,223.63,160.84,237.77,172.59Z"/><path class="cls-1" d="M227.67,200.34c-18.57.2-38-10.76-51-29.26L173,165.8c-23.71,9.71-39.56,30.65-38.63,51.66-.2,1.12.26,1.78,1.85,2.64l7.46,3.63c1.59.86,1.85,2.64,1,4.23L141,235.42c-.2,1.13-.4,2.25.07,2.91,11.36,17.63,35.93,26,61.76,20.73-.27-1.78-.33-4.69-.6-6.47C202.17,230,213.14,210.51,227.67,200.34Z"/><path class="cls-1" d="M252.24,218.56c-5.41,17.57-21.4,32.7-43.39,39.25-2.45.72-4.23,1-6.67,1.71C203.9,285.88,218.7,307,239.64,313a2.93,2.93,0,0,0,2.44-.73l5.68-5.94c1.32-.93,3.1-1.19,4,.13l5.94,5.68c.47.66,1.59.86,2.71,1.06,20-5.16,35.87-26.1,39.3-52.13-2.25-.39-3.83-1.25-6.08-1.65C272.46,251.65,257.33,235.67,252.24,218.56Z"/><path class="cls-1" d="M276.68,201.45c14.33,10.64,24.64,31,23.58,53.37-.39,2.25-.13,4-.52,6.28,25.43,6.79,50.06-1.6,62.41-19.1.66-.47.4-2.25-.06-2.91l-3.31-7.53c-.92-1.32-.06-2.9,1.26-3.83l7.53-3.3c.66-.47,2-1.39,2.18-2.51,1.31-20.61-13.95-42.41-37.46-53.5a55.45,55.45,0,0,1-3.9,5.68C314.72,192.53,294.58,201.72,276.68,201.45Z"/><path class="cls-1" d="M333.27,103.75c-.46-.66-1.59-.85-2.71-1l-8.26.86a3,3,0,0,1-3.63-2.38l-.86-8.26A2.45,2.45,0,0,0,316,90.28c-20.08-7.59-44.52-.32-62.41,19.1l3.69,5.28c12.95,18.5,16.59,40.56,10.05,57.93,15.19-10.64,36.59-13.81,58.46-6.48,2.24.39,4.29,1.91,6.54,2.31C346.55,146.62,346.61,120,333.27,103.75Z"/><path class="cls-2" d="M422.75,117.61a7.37,7.37,0,0,0-6-2.69c-3.24,0-5.59,1.35-5.59,3.66s2.69,3,5.86,3.44c5,.69,9.69,2.07,9.69,7.48s-5,7.45-10,7.45c-4.62,0-8.17-1.42-10.37-5.48l2.89-1.93a8.36,8.36,0,0,0,7.52,4c2.89,0,6.1-1,6.1-4,0-2.62-2.8-3.51-6.17-4-4.79-.66-9.34-1.86-9.34-7,0-5,5-6.93,9.3-6.93,3.48,0,7,.83,9,4.07Z"/><path class="cls-2" d="M443.26,119.4h3.44v17h-3.37l-.18-2.76a6.7,6.7,0,0,1-5.86,3.2c-5,0-8.72-3.17-8.72-9s3.9-8.86,8.79-8.86a6.57,6.57,0,0,1,5.79,3.07Zm-11.14,8.48a5.36,5.36,0,0,0,5.52,5.66c7.34,0,7.34-11.28,0-11.28A5.35,5.35,0,0,0,432.12,127.88Z"/><path class="cls-2" d="M454.25,112.3v14.07l6.31-7h4.31v.21l-7.35,7.79,8.35,8.76v.24h-4.35l-7.27-7.86v7.86h-3.59V112.3Z"/><path class="cls-2" d="M470.79,119.4v9.1c0,2.9,1.66,4.9,4.62,4.9a4.83,4.83,0,0,0,4.72-5.14V119.4h3.55v17h-3.2l-.21-2.52a7.27,7.27,0,0,1-5.86,2.76c-4.17,0-7.17-3-7.17-8.13V119.4Z"/><path class="cls-2" d="M491,119.4l.25,2.24a5.23,5.23,0,0,1,5-2.62,6.54,6.54,0,0,1,4.21,1.45l-1.62,3.1a4.66,4.66,0,0,0-7.58,3.62v9.21h-3.55v-17Z"/><path class="cls-2" d="M515.12,119.4h3.44v17h-3.38l-.17-2.76a6.71,6.71,0,0,1-5.86,3.2c-5,0-8.72-3.17-8.72-9s3.9-8.86,8.79-8.86a6.57,6.57,0,0,1,5.79,3.07ZM504,127.88a5.36,5.36,0,0,0,5.52,5.66c7.34,0,7.34-11.28,0-11.28A5.35,5.35,0,0,0,504,127.88Z"/><path class="cls-2" d="M535.42,136.4v-9.1c0-2.93-1.66-4.9-4.59-4.9a4.83,4.83,0,0,0-4.76,5.1v8.9h-3.55v-17h3.24l.21,2.48a7.38,7.38,0,0,1,5.72-2.72c4.14,0,7.31,2.93,7.31,8.13v9.14Z"/><path class="cls-2" d="M559.2,127.92a8.45,8.45,0,0,1-8.83,8.82c-5.31,0-8.75-3.79-8.75-8.82a8.79,8.79,0,1,1,17.58,0Zm-14,0c0,3,2,5.51,5.2,5.51s5.24-2.48,5.24-5.51a5.35,5.35,0,0,0-5.24-5.59C547.13,122.33,545.17,124.92,545.17,127.92Z"/><path class="cls-2" d="M573.71,136.4v-9.34c0-2.52-1.45-4.62-4-4.62s-4.1,2.1-4.1,4.62v9.34h-3.55v-17h3.31l.24,2.27a5.16,5.16,0,0,1,4.76-2.55,5.35,5.35,0,0,1,5.34,3.42,6.2,6.2,0,0,1,5.83-3.38c4.68,0,7.2,3,7.2,7.86v9.41h-3.59V127c0-2.52-1.24-4.52-3.75-4.52s-4.14,2.07-4.14,4.59v9.34Z"/><path class="cls-2" d="M596.49,114.4a2.21,2.21,0,0,1-4.42,0A2.21,2.21,0,0,1,596.49,114.4Zm-4,4.93V136.4H596V119.33Z"/><path class="cls-2" d="M616.27,119.4l-10.72,24.89h-3.93l3.52-8.13-6.79-16.76h4.13l2.93,8,1.69,4.83,1.83-4.76,3.38-8.1Z"/><path class="cls-2" d="M631.33,119.4h3.45v17H631.4l-.17-2.76a6.72,6.72,0,0,1-5.86,3.2c-5,0-8.72-3.17-8.72-9s3.89-8.86,8.79-8.86a6.57,6.57,0,0,1,5.79,3.07Zm-11.13,8.48a5.36,5.36,0,0,0,5.51,5.66c7.35,0,7.35-11.28,0-11.28A5.35,5.35,0,0,0,620.2,127.88Z"/><path class="cls-2" d="M474.13,180.82c-3.85-6.43-14.47-12.54-26.69-12.54-15.75,0-23.31,6.59-23.31,14.95,0,9.81,11.58,12.54,25.08,14.15,23.48,2.89,45.34,9,45.34,35.85,0,25.09-22.18,35.86-47.27,35.86-23,0-40.67-7.08-49-27.66l17.68-9.16c5,12.38,18,17.85,31.68,17.85,13.34,0,25.88-4.67,25.88-16.89,0-10.61-11.09-14.95-26.05-16.56-23-2.73-44.21-8.84-44.21-34.08,0-23.16,22.83-32.64,43.57-32.8,17.53,0,35.7,5,44.22,22.35Z"/><path class="cls-2" d="M506,302.53V186.93H524.3l1.29,10.93c6.11-8.84,16.72-12.7,25.72-12.7,24.44,0,40.68,18.17,40.68,41.48,0,23.15-14.63,41.48-40,41.48-8.36,0-20.74-2.57-26.37-11.25v45.66Zm66.41-75.89c0-12.38-8.36-22.51-22.51-22.51s-22.51,10.13-22.51,22.51,9.16,22.51,22.51,22.51S572.38,239,572.38,226.64Z"/><path class="cls-2" d="M620,233.55c1.29,9.81,9.81,16.89,23.64,16.89,7.23,0,16.72-2.74,21.22-7.4l12.54,12.38c-8.36,8.68-22,12.86-34.09,12.86-27.33,0-43.57-16.88-43.57-42.28,0-24.12,16.4-41.48,42.13-41.48,26.53,0,43.09,16.4,40,49Zm43.09-16.23c-1.29-10.29-9.33-15.44-20.58-15.44-10.61,0-19.29,5.15-22.19,15.44Z"/><path class="cls-2" d="M756.32,186.93h18.81v79.26H756.64l-1-11.57c-4.5,9.32-16.88,13.82-25.72,14-23.48.16-40.84-14.31-40.84-42.13,0-27.33,18.17-41.64,41.32-41.48,10.61,0,20.74,5,25.24,12.86Zm-47.6,39.55c0,15.11,10.46,24.12,23.48,24.12,30.87,0,30.87-48.08,0-48.08C719.18,202.52,708.72,211.37,708.72,226.48Z"/><path class="cls-2" d="M812,153.81v64.95l26.69-31.83h23.47v1.12L829.8,224.23l36.81,40.52v1.44H843l-31-35.85v35.85H792.33V153.81Z"/></svg>